<svg width="102" height="40" viewBox="0 0 102 40" fill="none" xmlns="http://www.w3.org/2000/svg">
    <path d="M20.4942 30.7111L19.9086 30.4298C16.4298 28.7419 10.4409 28.6978 7.98622 28.7616C7.36762 28.7775 6.84142 28.4587 6.78201 28.0349L6.77635 27.987C6.71223 27.5275 7.21862 27.1253 7.88815 27.1075C10.4805 27.0352 16.576 27.0793 20.6931 28.8085C22.6819 28.1774 28.8756 26.376 33.2728 26.8927C34.0008 26.9781 34.4298 27.506 34.1601 27.9795L34.1384 28.0189C33.9347 28.3781 33.3925 28.5815 32.8409 28.515C29.2518 28.0855 23.3005 29.7499 21.1354 30.4945L20.4942 30.7111Z" fill="#2EB79C"/>
    <path d="M20.4871 35.5534L19.7082 35.1783C15.0875 32.9278 7.12666 32.8772 3.86576 32.9616C3.04441 32.9831 2.34376 32.5593 2.26266 31.9948L2.25323 31.9319C2.17119 31.3196 2.84449 30.7833 3.73374 30.757C7.17852 30.6632 15.2798 30.7204 20.7521 33.0178C23.3943 32.1814 31.622 29.7874 37.4686 30.4757C38.4361 30.5891 39.0057 31.2906 38.6483 31.9207L38.6191 31.9713C38.3484 32.4496 37.627 32.7215 36.8943 32.6277C32.1256 32.0567 24.2157 34.2687 21.3348 35.2533L20.4871 35.5534Z" fill="#2EB79C"/>
    <path d="M20.485 40.0001L19.6363 39.5856C14.5715 37.1222 5.85157 37.0641 2.27666 37.1569C1.37232 37.1804 0.605666 36.7153 0.519853 36.102L0.510423 36.0336C0.416123 35.364 1.15638 34.7789 2.1305 34.7517C5.9025 34.6476 14.7808 34.7114 20.7755 37.2291C23.6714 36.3102 32.6894 33.6874 39.0914 34.4394C40.1522 34.5642 40.7765 35.3322 40.3842 36.0232L40.3522 36.0786C40.0561 36.6018 39.2658 36.8981 38.4662 36.8015C33.241 36.1761 24.5748 38.6001 21.4233 39.6831L20.485 40.0001Z" fill="#2EB79C"/>
    <path d="M25.0743 11.7119V24.943H23.8163V11.7119C23.8163 10.0691 22.3302 8.73281 20.5036 8.73281C18.677 8.73281 17.188 10.0691 17.188 11.7119V24.943H15.9291V11.7119C15.9291 9.44453 17.9801 7.60193 20.5036 7.60193C23.027 7.60193 25.0743 9.44453 25.0743 11.7119Z" fill="#081C29"/>
    <path d="M29.5214 10.988V24.943H28.2634V10.988C28.2634 7.46032 25.0714 4.5928 21.1456 4.5928H19.8566C15.9327 4.5928 12.7388 7.46032 12.7388 10.988V24.943H11.4808V10.988C11.4808 6.83674 15.2387 3.46191 19.8566 3.46191H21.1456C25.7654 3.46191 29.5214 6.83674 29.5214 10.988Z" fill="#081C29"/>
    <path d="M32.8938 11.1353V24.9432H31.6359V11.1353C31.6359 5.61784 26.638 1.13088 20.5028 1.13088C14.3676 1.13088 9.36692 5.61784 9.36692 11.1353V24.9432H8.11084V11.1353C8.11084 4.99426 13.6679 0 20.5028 0C27.3377 0 32.8938 4.99426 32.8938 11.1353Z" fill="#081C29"/>
    <path d="M51.931 8.15259V9.95225H47.351C46.8583 9.95225 46.6127 10.2522 46.6127 10.5782C46.6127 10.8521 46.8037 11.139 47.1872 11.2286L50.4566 11.9586C51.8794 12.2716 52.5359 13.3282 52.5359 14.3589C52.5359 15.6374 51.5921 16.8885 49.7721 16.8885H44.8586V15.078H49.7009C50.1799 15.078 50.4672 14.7391 50.4672 14.3871C50.4672 14.098 50.2754 13.8132 49.8517 13.7221L46.5687 12.9784C45.1595 12.6525 44.5023 11.6218 44.5023 10.6179C44.5023 9.36537 45.4332 8.15259 47.2115 8.15259H51.931Z" fill="#081C29"/>
    <path d="M58.4946 12.0916H55.6899V14.6871C55.6899 15 55.909 15.1829 56.2372 15.1829H58.4946V16.8915H55.8984C54.6537 16.8915 53.8472 16.1608 53.8472 14.987V12.0916H52.889V10.3961H53.8472V8.15552H55.6937V10.3961H58.4984L58.4946 12.0916Z" fill="#081C29"/>
    <path d="M59.3879 10.3962H61.2345V13.8655C61.2345 14.7002 61.7545 15.3789 62.7255 15.3789C63.6829 15.3789 64.2029 14.7002 64.2029 13.8655V10.3962H66.0495V13.8915C66.0495 15.848 64.7775 17.0875 62.7255 17.0875C60.6872 17.0875 59.3902 15.848 59.3902 13.8915L59.3879 10.3962Z" fill="#081C29"/>
    <path d="M72.4648 7.5H74.2977V16.8915H72.4648V16.0437H72.4102C71.9857 16.6306 71.1928 17.0743 70.2074 17.0873C68.279 17.0873 66.9517 15.6418 66.9517 13.6304C66.9517 11.5828 68.3472 10.1872 70.1937 10.2002C71.1928 10.2002 71.9721 10.657 72.4102 11.2569H72.4648V7.5ZM70.6455 15.4178C71.7121 15.4178 72.4648 14.648 72.4648 13.6434C72.4648 12.6785 71.7401 11.8698 70.6455 11.8698C69.5646 11.8698 68.8126 12.6265 68.8126 13.6434C68.8126 14.6603 69.5615 15.4178 70.6455 15.4178Z" fill="#081C29"/>
    <path d="M80.6289 10.3962H82.5027L79.7951 17.9483C79.4396 18.9262 78.6732 19.5001 77.6067 19.5001H75.6661V17.7785H77.5544C77.7181 17.785 77.8801 17.7442 78.019 17.6614L74.8861 10.3962H76.9146L78.9613 15.329L80.6289 10.3962Z" fill="#081C29"/>
    <path d="M53.8577 23.7302C54.0459 26.7003 52.0998 28.9777 49.173 28.9777C46.368 28.9777 44.5023 26.8739 44.5023 24.2591C44.5023 21.6692 46.3279 19.5 49.1871 19.5C51.4685 19.5 53.1728 20.8968 53.6555 22.8218H51.5369C51.1651 21.981 50.3025 21.3844 49.1752 21.4122C47.4708 21.4393 46.4506 22.7136 46.4506 24.2321C46.4506 25.7649 47.4976 27.0662 49.2153 27.0798C50.4795 27.0933 51.4023 26.4426 51.7384 25.4658H49.0666V23.7302H53.8577Z" fill="#081C29"/>
    <path d="M59.9773 22.0357H61.7761V28.7882H59.9773V27.8926H59.9103C59.4946 28.5162 58.7295 28.9768 57.7501 28.9911C55.9379 28.9911 54.5697 27.5537 54.5697 25.4243C54.5697 23.3363 55.871 21.8178 57.7672 21.8313C58.7339 21.8313 59.4984 22.2927 59.9141 22.9028H59.981L59.9773 22.0357ZM59.9773 25.4116C59.9773 24.3679 59.2396 23.5677 58.1926 23.5677C57.1322 23.5677 56.3945 24.3544 56.3945 25.4116C56.3945 26.4687 57.1322 27.2562 58.1926 27.2562C59.2664 27.2562 59.9773 26.4154 59.9773 25.4131V25.4116Z" fill="#081C29"/>
    <path d="M68.1935 23.7983H65.4422V26.4965C65.4422 26.8218 65.6571 27.0119 65.9791 27.0119H68.1935V28.7881H65.64C64.419 28.7881 63.627 28.0285 63.627 26.8083V23.7983H62.6908V22.0356H63.63V19.7026H65.4422V22.0319H68.1935V23.7983Z" fill="#081C29"/>
    <path d="M75.625 26.0218H70.5788C70.6866 26.7138 71.2771 27.2991 72.2029 27.3375C72.82 27.3645 73.4239 27.0797 73.6655 26.6454H75.5558C75.1096 28.1482 73.7838 28.992 72.2006 28.992C69.946 28.992 68.725 27.3104 68.725 25.4117C68.725 23.4048 70.1609 21.8322 72.214 21.8322C74.4441 21.8322 75.8666 23.6355 75.625 26.0218ZM70.5922 24.5942H73.7897C73.5889 23.8894 72.9851 23.4672 72.2066 23.4672C71.4109 23.4732 70.7803 23.9203 70.5922 24.598V24.5942Z" fill="#081C29"/>
    <path d="M84.1735 22.0358H86.0518L83.9184 28.7883H82.1873L80.8852 24.4898L79.5713 28.7883H77.8394L75.7045 22.0358H77.5836L78.818 26.2525L80.0658 22.0358H81.6906L82.9651 26.2525L84.1735 22.0358Z" fill="#081C29"/>
    <path d="M91.5429 22.0357H93.3417V28.7882H91.5429V27.8926H91.4759C91.0603 28.5162 90.2951 28.9768 89.3195 28.9911C87.5073 28.9911 86.139 27.5537 86.139 25.4243C86.139 23.3363 87.4404 21.8178 89.3366 21.8313C90.3033 21.8313 91.0677 22.2927 91.4834 22.9028H91.5503L91.5429 22.0357ZM91.5429 25.4116C91.5429 24.3679 90.8052 23.5677 89.7582 23.5677C88.6986 23.5677 87.9601 24.3544 87.9601 25.4116C87.9601 26.4687 88.6986 27.2562 89.7582 27.2562C90.829 27.2562 91.5429 26.4154 91.5429 25.4131V25.4116Z" fill="#081C29"/>
    <path d="M99.6594 22.0358H101.498L98.8407 29.8868C98.4919 30.9034 97.7402 31.5 96.6939 31.5H94.788V29.7103H96.6396C96.8005 29.7172 96.9597 29.6748 97.0962 29.5885L94.0228 22.0358H96.009L98.022 27.1609L99.6594 22.0358Z" fill="#081C29"/>
</svg>
    